<?xml version="1.0" standalone="no"?><!DOCTYPE svg PUBLIC "-//W3C//DTD SVG 1.1//EN" "http://www.w3.org/Graphics/SVG/1.1/DTD/svg11.dtd"><svg t="1761221242330" class="icon" viewBox="0 0 1024 1024" version="1.1" xmlns="http://www.w3.org/2000/svg" p-id="5474" xmlns:xlink="http://www.w3.org/1999/xlink" width="200" height="200"><path d="M133.12 891.192889a161.308444 161.308444 0 0 1 0-229.205333 163.911111 163.911111 0 0 1 168.064-38.755556l3.029333 1.024-2.076444 2.446222c-10.865778 13.198222-23.224889 26.794667-33.877333 38.4l-0.810667 0.853334-1.180445-0.170667a116.152889 116.152889 0 0 0-17.848888-1.422222 112.711111 112.711111 0 0 0-113.066667 112.355555 112.711111 112.711111 0 0 0 113.066667 112.355556 113.493333 113.493333 0 0 0 79.985777-32.910222 112.469333 112.469333 0 0 0 31.601778-97.28l-0.184889-1.137778 0.867556-0.810667c11.377778-10.567111 23.751111-21.333333 38.584889-33.635555l2.474666-2.062223 1.080889 3.057778A162.744889 162.744889 0 0 1 363.804444 891.306667a163.2 163.2 0 0 1-115.342222 47.445333c-43.221333 0.042667-84.693333-17.066667-115.328-47.559111z m590.549333 38.855111a161.735111 161.735111 0 0 1-102.684444-205.141333l1.024-2.986667 2.474667 1.976889a744.632889 744.632889 0 0 1 38.826666 32.981333l0.881778 0.810667-0.184889 1.180444a111.928889 111.928889 0 0 0 31.872 97.265778 113.692444 113.692444 0 0 0 160.028445-0.241778A111.886222 111.886222 0 0 0 855.708444 696.888889a112.355556 112.355556 0 0 0-79.744-32.796445c-6.001778 0-11.989333 0.469333-17.92 1.422223l-1.194666 0.184889-0.810667-0.896a876.657778 876.657778 0 0 1-33.194667-38.542223l-1.991111-2.460444 3.015111-1.024a164.465778 164.465778 0 0 1 51.982223-8.391111 161.592889 161.592889 0 0 1 115.2 47.644444 161.251556 161.251556 0 0 1 39.168 166.016 163.057778 163.057778 0 0 1-154.581334 110.478222c-17.664 0-35.214222-2.872889-51.968-8.476444zM697.173333 785.735111a88.064 88.064 0 0 1 6.499556-33.322667c-50.844444-47.872-121.742222-105.472-172.472889-110.321777-6.044444-0.483556-29.752889-0.483556-36.451556 0.241777-51.086222 5.688889-121.884444 63.800889-172.373333 111.488 3.384889 9.528889 5.12 19.555556 5.12 29.667556a89.329778 89.329778 0 0 1-89.6 88.917333 89.216 89.216 0 0 1-89.6-88.903111 89.216 89.216 0 0 1 89.6-88.903111 89.870222 89.870222 0 0 1 33.137778 6.286222c45.240889-47.317333 99.342222-112.184889 109.980444-161.706666 1.976889-16.241778 2.289778-32.64 0.952889-48.952889-7.566222-50.289778-64.426667-118.755556-111.559111-167.907556a90.183111 90.183111 0 0 1-30.236444 5.219556 89.216 89.216 0 0 1-89.6-88.903111 89.216 89.216 0 0 1 89.6-88.903111 89.244444 89.244444 0 0 1 89.6 88.888888 88.177778 88.177778 0 0 1-6.257778 32.654223c52.224 49.194667 125.511111 108.743111 176.540444 110.72 4.551111 0 23.978667 0.227556 29.724445-0.241778 50.844444-3.726222 122.410667-61.923556 173.738666-110.236445a88.049778 88.049778 0 0 1-6.343111-32.938666 89.216 89.216 0 0 1 89.6-88.917334 89.230222 89.230222 0 0 1 89.6 88.917334 89.344 89.344 0 0 1-89.6 88.874666c-10.168889 0-20.266667-1.706667-29.866666-5.077333-50.588444 52.835556-112.426667 127.857778-112.270223 178.872889v19.555556c-1.678222 50.972444 61.297778 127.431111 112.568889 180.949333a90.012444 90.012444 0 0 1 29.582223-4.977778 89.230222 89.230222 0 0 1 89.6 88.917333 89.329778 89.329778 0 0 1-89.6 88.888889 89.216 89.216 0 0 1-89.6-88.846222zM457.912889 456.576a77.340444 77.340444 0 0 0 0.142222 109.966222 78.748444 78.748444 0 0 0 110.762667-0.099555 77.525333 77.525333 0 0 0 0-109.866667l-0.113778-0.113778a78.421333 78.421333 0 0 0-55.324444-22.755555 78.421333 78.421333 0 0 0-55.466667 22.826666v0.042667z m21.020444 89.884444a48.625778 48.625778 0 0 1-14.506666-34.702222 47.943111 47.943111 0 0 1 14.506666-34.673778 49.180444 49.180444 0 0 1 34.915556-14.435555c13.155556-0.028444 25.742222 5.262222 34.929778 14.677333a48.739556 48.739556 0 0 1-0.128 69.304889 49.123556 49.123556 0 0 1-34.801778 14.250667h-0.341333a48.597333 48.597333 0 0 1-34.56-14.435556zM133.091556 362.083556c-60.743111-62.592-60.743111-162.133333 0-224.711112 62.663111-64.554667 165.617778-66.56 230.741333-4.494222a162.503111 162.503111 0 0 1 38.570667 168.149334l-1.024 3.015111-2.460445-2.076445c-14.222222-11.761778-26.709333-22.912-38.4-34.133333l-0.839111-0.796445 0.184889-1.137777a112.483556 112.483556 0 0 0-31.601778-97.92 113.464889 113.464889 0 0 0-79.815111-32.881778 112.753778 112.753778 0 0 0-113.28 112.213333 112.753778 112.753778 0 0 0 112.981333 112.540445c6.200889 0 12.373333-0.497778 18.488889-1.493334l1.180445-0.199111 0.796444 0.881778c10.752 11.377778 23.239111 24.917333 34.332445 38.101333l2.062222 2.446223-3.029334 1.024c-17.265778 5.973333-35.413333 9.016889-53.674666 9.016888h-0.625778a161.322667 161.322667 0 0 1-114.602667-47.559111h0.014223z m642.517333 47.431111a165.347556 165.347556 0 0 1-52.337778-8.419556l-3.043555-1.024 2.076444-2.460444a826.638222 826.638222 0 0 1 33.436444-38.4l0.810667-0.881778 1.180445 0.184889a113.592889 113.592889 0 0 0 98.261333-31.658667 111.872 111.872 0 0 0-0.312889-158.961778 113.777778 113.777778 0 0 0-160.028444 0.284445 112.512 112.512 0 0 0-31.616 97.28l0.184888 1.180444-0.881777 0.796445c-14.222222 12.999111-26.851556 23.779556-38.627556 32.995555l-2.488889 1.934222-1.038222-2.944a161.251556 161.251556 0 0 1 39.168-166.684444c63.900444-63.246222 166.812444-63.189333 230.641778 0.113778a161.493333 161.493333 0 0 1 0 229.219555 162.133333 162.133333 0 0 1-114.673778 47.431111h-0.711111z" fill="#2c2c2c" p-id="5475"></path></svg>